<svg width="560" height="554" viewBox="0 0 560 554" fill="none" xmlns="http://www.w3.org/2000/svg">
<g filter="url(#filter0_f_1087_46)">
<rect x="100" y="100" width="360" height="353.074" rx="176.537" fill="url(#paint0_linear_1087_46)"/>
</g>
<path d="M379.555 277.505C289.541 286.359 285.908 296.222 278.558 444.524C278.519 445.159 277.236 445.159 277.197 444.524C269.846 296.222 260.279 286.388 176.2 277.505C175.384 277.447 175.384 276.553 176.2 276.495C260.318 267.641 269.846 257.777 277.197 109.476C277.236 108.841 278.519 108.841 278.558 109.476C285.908 257.777 289.58 267.612 379.555 276.495C380.371 276.553 380.371 277.447 379.555 277.505Z" fill="white"/>
<path d="M204.439 177.25C204.439 191.747 192.696 203.5 178.211 203.5C163.725 203.5 151.982 191.747 151.982 177.25C151.982 162.753 163.725 151 178.211 151C192.696 151 204.439 162.753 204.439 177.25Z" fill="white"/>
<path d="M192.636 374.781C192.636 383.842 185.297 391.188 176.243 391.188C167.19 391.188 159.851 383.842 159.851 374.781C159.851 365.72 167.19 358.375 176.243 358.375C185.297 358.375 192.636 365.72 192.636 374.781Z" fill="white"/>
<path d="M430 224.5C430 236.098 420.606 245.5 409.018 245.5C397.429 245.5 388.035 236.098 388.035 224.5C388.035 212.902 397.429 203.5 409.018 203.5C420.606 203.5 430 212.902 430 224.5Z" fill="white"/>
<path d="M277.893 130C196.864 130 131 195.919 131 277.016C131 358.113 196.864 424 277.893 424C358.922 424 424.754 358.113 424.754 277.016C424.754 195.919 358.922 130 277.893 130ZM277.893 141.297C352.869 141.297 413.53 201.977 413.53 277.016C413.53 352.054 352.869 412.766 277.893 412.766C202.917 412.766 142.287 352.054 142.287 277.016C142.287 201.977 202.917 141.297 277.893 141.297Z" fill="white"/>
<defs>
<filter id="filter0_f_1087_46" x="0" y="0" width="560" height="553.075" filterUnits="userSpaceOnUse" color-interpolation-filters="sRGB">
<feFlood flood-opacity="0" result="BackgroundImageFix"/>
<feBlend mode="normal" in="SourceGraphic" in2="BackgroundImageFix" result="shape"/>
<feGaussianBlur stdDeviation="50" result="effect1_foregroundBlur_1087_46"/>
</filter>
<linearGradient id="paint0_linear_1087_46" x1="280" y1="100" x2="280" y2="453.074" gradientUnits="userSpaceOnUse">
<stop stop-color="#F75762"/>
<stop offset="1" stop-color="#6501CD"/>
</linearGradient>
</defs>
</svg>
