<svg width="242" height="261" viewBox="0 0 242 261" fill="none" xmlns="http://www.w3.org/2000/svg">
<path d="M186.475 87.698C185.265 88.4104 183.77 88.4363 182.536 87.7662L122.914 55.3855C121.721 54.7375 120.28 54.739 119.089 55.3893L59.7623 87.7631C58.5307 88.4352 57.037 88.4129 55.826 87.7042L15.1911 63.9252C12.5036 62.3526 12.5644 58.4476 15.2995 56.9594L119.088 0.486441C120.28 -0.162146 121.72 -0.162147 122.912 0.48644L226.72 56.9701C229.451 58.456 229.517 62.3529 226.838 63.9305L186.475 87.698ZM108.9 256.675C108.9 259.719 105.636 261.648 102.97 260.179L2.06974 204.587C0.792992 203.883 0 202.541 0 201.083V82.9062C0 79.82 3.34707 77.8964 6.01371 79.4501L46.4137 102.989C47.6436 103.705 48.4 105.022 48.4 106.445V172.872C48.4 174.335 49.1996 175.682 50.4846 176.383L106.815 207.109C108.1 207.81 108.9 209.157 108.9 210.621V256.675ZM139.03 260.179C136.364 261.648 133.1 259.719 133.1 256.675V210.91C133.1 209.452 133.894 208.109 135.171 207.406L191.529 176.386C192.806 175.683 193.6 174.34 193.6 172.882V106.733C193.6 105.316 194.35 104.005 195.57 103.286L235.97 79.4967C238.637 77.9266 242 79.8491 242 82.9435V201.083C242 202.541 241.207 203.883 239.93 204.587L139.03 260.179Z" fill="white"/>
<path d="M175 161.171C175 163.47 173.74 165.467 171.82 166.495L124.42 193.357C123.46 194.083 122.26 194.446 121 194.446C119.74 194.446 118.54 194.083 117.58 193.357L70.18 166.495C69.2181 165.986 68.4131 165.22 67.8525 164.281C67.2918 163.343 66.997 162.267 67 161.171V106.721C67 104.422 68.26 102.426 70.18 101.397L117.58 74.5352C118.54 73.8092 119.74 73.4462 121 73.4462C122.26 73.4462 123.46 73.8092 124.42 74.5352L171.82 101.397C173.74 102.426 175 104.422 175 106.721V161.171ZM79 157.602L115 178.051V137.455L79 117.067V157.602ZM163 157.602V117.067L127 137.455V178.051L163 157.602Z" fill="white"/>
</svg>
