<svg width="515" height="515" viewBox="0 0 515 515" fill="none" xmlns="http://www.w3.org/2000/svg">
<path d="M296.764 257.68C262.004 260.843 260.601 264.365 257.763 317.33C257.748 317.557 257.252 317.557 257.237 317.33C254.399 264.365 250.704 260.853 218.237 257.68C217.921 257.66 217.921 257.34 218.237 257.32C250.719 254.157 254.399 250.635 257.237 197.67C257.252 197.443 257.748 197.443 257.763 197.67C260.601 250.635 262.019 254.147 296.764 257.32C297.079 257.34 297.079 257.66 296.764 257.68Z" fill="white"/>
<path d="M37.3789 257.103C37.3789 135.452 136.298 36.5082 257.875 36.5082C297.014 36.5082 333.77 46.8104 365.699 64.7747L383.165 32.8381C346.005 11.9194 304.203 0.6308 261.566 0H257.382C116.085 0.214628 1.54494 113.903 0 255.021V257.489C0.0306348 292.561 7.23227 327.256 21.1622 359.441C35.0921 391.626 55.4559 420.622 81.0018 444.645L106.429 417.173C84.6192 396.604 67.2437 371.792 55.3695 344.262C43.4953 316.732 37.3731 287.064 37.3789 257.081V257.103ZM436.916 73.0165L412.155 99.6303C433.14 120.132 449.813 144.626 461.192 171.67C472.572 198.714 478.427 227.761 478.415 257.103C478.415 378.711 379.496 477.655 257.918 477.655C219.66 477.655 183.676 467.868 152.305 450.655L133.98 483.321C171.825 504.117 214.309 515.014 257.489 515C399.666 515 515 399.68 515 257.446C514.988 223.044 508.073 188.994 494.664 157.314C481.255 125.634 461.625 96.969 436.938 73.0165H436.916ZM42.121 257.103C42.1198 286.423 48.1069 315.435 59.7149 342.359C71.3229 369.282 88.3072 393.55 109.626 413.674L134.946 386.288C117.413 369.651 103.451 349.616 93.9115 327.407C84.3717 305.197 79.4535 281.276 79.4569 257.103C79.4569 158.675 159.493 78.6397 257.875 78.6397C289.697 78.6397 319.566 87.0317 345.465 101.712L363.382 68.96C331.192 50.7776 294.843 41.2462 257.875 41.2944C138.937 41.2515 42.121 138.092 42.121 257.103ZM436.294 257.103C436.294 355.531 356.258 435.566 257.875 435.566C228.18 435.602 198.949 428.185 172.861 413.996L154.579 446.534C186.247 463.873 221.774 472.945 257.875 472.911C376.814 472.911 473.63 376.071 473.63 257.103C473.63 196.835 448.804 142.341 408.893 103.15L383.509 130.494C400.253 147.048 413.542 166.765 422.604 188.5C431.665 210.235 436.319 233.554 436.294 257.103ZM394.495 257.103C394.461 293.322 380.06 328.047 354.454 353.656C328.847 379.265 294.128 393.664 257.918 393.692C235.406 393.715 213.241 388.139 193.417 377.466L175.221 409.811C200.597 423.616 229.032 430.826 257.918 430.78C353.704 430.78 431.616 352.87 431.616 257.06C431.632 234.161 427.107 211.485 418.305 190.346C409.502 169.207 396.596 150.024 380.333 133.906L355.035 161.1C380.322 186.65 394.503 221.151 394.495 257.103ZM84.2419 257.103C84.2419 306.489 104.991 351.153 138.207 382.832L163.377 355.574C150.077 342.856 139.493 327.572 132.265 310.648C125.036 293.723 121.313 275.508 121.32 257.103C121.354 220.888 135.752 186.165 161.354 160.557C186.956 134.949 221.669 120.548 257.875 120.514C281.541 120.497 304.799 126.676 325.338 138.435L343.147 105.876C317.146 91.1293 287.766 83.3794 257.875 83.383C162.154 83.383 84.2419 161.293 84.2419 257.103ZM353.104 257.103C353.098 282.362 343.062 306.584 325.204 324.442C307.346 342.301 283.128 352.333 257.875 352.333C242.466 352.34 227.287 348.59 213.652 341.409L195.735 373.346C214.841 383.604 236.191 388.965 257.875 388.949C292.824 388.915 326.331 375.013 351.044 350.294C375.756 325.576 389.654 292.06 389.689 257.103C389.711 222.488 376.078 189.261 351.752 164.641L326.818 191.47C343.681 209.158 353.087 232.662 353.082 257.103H353.104ZM126.062 257.103C126.051 274.85 129.634 292.415 136.597 308.738C143.56 325.061 153.757 339.804 166.574 352.076L191.4 325.247L191.701 325.548C182.5 316.692 175.181 306.068 170.185 294.314C165.189 282.56 162.618 269.918 162.626 257.146C162.623 244.639 165.084 232.255 169.867 220.699C174.651 209.144 181.664 198.645 190.505 189.801C199.346 180.958 209.843 173.943 221.395 169.159C232.948 164.374 245.329 161.913 257.833 161.915C274.546 161.907 290.962 166.336 305.404 174.75L322.999 142.599C303.161 131.237 280.693 125.272 257.833 125.3C185.221 125.193 126.062 184.387 126.062 257.103ZM184.856 257.103C184.856 237.746 192.543 219.182 206.227 205.495C219.911 191.808 238.47 184.119 257.822 184.119C277.174 184.119 295.733 191.808 309.417 205.495C323.1 219.182 330.788 237.746 330.788 257.103C330.788 276.457 323.102 295.018 309.42 308.703C295.738 322.388 277.182 330.076 257.833 330.076C238.484 330.076 219.927 322.388 206.245 308.703C192.564 295.018 184.877 276.457 184.877 257.103H184.856ZM188.053 257.103C188.076 275.607 195.435 293.347 208.516 306.432C221.597 319.516 239.333 326.877 257.833 326.9C276.341 326.894 294.091 319.54 307.183 306.453C320.275 293.366 327.638 275.616 327.655 257.103C327.655 247.934 325.85 238.855 322.342 230.385C318.834 221.914 313.692 214.217 307.211 207.734C300.729 201.251 293.034 196.108 284.566 192.599C276.097 189.09 267.02 187.284 257.854 187.284C248.688 187.284 239.611 189.09 231.142 192.599C222.674 196.108 214.979 201.251 208.497 207.734C202.016 214.217 196.874 221.914 193.366 230.385C189.858 238.855 188.053 247.934 188.053 257.103Z" fill="url(#paint0_linear_620_61)"/>
<path d="M293 474C293 480.904 287.404 486.5 280.5 486.5C273.596 486.5 268 480.904 268 474C268 467.096 273.596 461.5 280.5 461.5C287.404 461.5 293 467.096 293 474Z" fill="white"/>
<path d="M486 222.5C486 229.68 480.627 235.5 474 235.5C467.373 235.5 462 229.68 462 222.5C462 215.32 467.373 209.5 474 209.5C480.627 209.5 486 215.32 486 222.5Z" fill="white"/>
<path d="M231 41C231 47.9036 225.18 53.5 218 53.5C210.82 53.5 205 47.9036 205 41C205 34.0964 210.82 28.5 218 28.5C225.18 28.5 231 34.0964 231 41Z" fill="white"/>
<path d="M53 280.5C53 287.127 47.6274 292.5 41 292.5C34.3726 292.5 29 287.127 29 280.5C29 273.873 34.3726 268.5 41 268.5C47.6274 268.5 53 273.873 53 280.5Z" fill="white"/>
<path d="M425 168.5C425 175.127 419.404 180.5 412.5 180.5C405.596 180.5 400 175.127 400 168.5C400 161.873 405.596 156.5 412.5 156.5C419.404 156.5 425 161.873 425 168.5Z" fill="white"/>
<path d="M359 408C359 414.904 353.404 420.5 346.5 420.5C339.596 420.5 334 414.904 334 408C334 401.096 339.596 395.5 346.5 395.5C353.404 395.5 359 401.096 359 408Z" fill="white"/>
<path d="M429 333.5C429 340.127 423.18 345.5 416 345.5C408.82 345.5 403 340.127 403 333.5C403 326.873 408.82 321.5 416 321.5C423.18 321.5 429 326.873 429 333.5Z" fill="white"/>
<path d="M218 424C218 430.904 212.627 436.5 206 436.5C199.373 436.5 194 430.904 194 424C194 417.096 199.373 411.5 206 411.5C212.627 411.5 218 417.096 218 424Z" fill="white"/>
<path d="M310 82.5C310 89.1274 304.18 94.5 297 94.5C289.82 94.5 284 89.1274 284 82.5C284 75.8726 289.82 70.5 297 70.5C304.18 70.5 310 75.8726 310 82.5Z" fill="white"/>
<path d="M112 333.5C112 340.127 106.18 345.5 99 345.5C91.8203 345.5 86 340.127 86 333.5C86 326.873 91.8203 321.5 99 321.5C106.18 321.5 112 326.873 112 333.5Z" fill="white"/>
<path d="M99 210C99 216.904 93.4036 222.5 86.5 222.5C79.5964 222.5 74 216.904 74 210C74 203.096 79.5964 197.5 86.5 197.5C93.4036 197.5 99 203.096 99 210Z" fill="white"/>
<path d="M185 102.5C185 109.127 179.627 114.5 173 114.5C166.373 114.5 161 109.127 161 102.5C161 95.8726 166.373 90.5 173 90.5C179.627 90.5 185 95.8726 185 102.5Z" fill="white"/>
<path d="M400 222.5C400 229.68 394.404 235.5 387.5 235.5C380.596 235.5 375 229.68 375 222.5C375 215.32 380.596 209.5 387.5 209.5C394.404 209.5 400 215.32 400 222.5Z" fill="white"/>
<path d="M136 255.5C136 262.68 130.627 268.5 124 268.5C117.373 268.5 112 262.68 112 255.5C112 248.32 117.373 242.5 124 242.5C130.627 242.5 136 248.32 136 255.5Z" fill="white"/>
<defs>
<linearGradient id="paint0_linear_620_61" x1="0.00403358" y1="-0.458684" x2="515.004" y2="514.541" gradientUnits="userSpaceOnUse">
<stop stop-color="#D611B2"/>
<stop offset="0.223958" stop-color="#7D0BEC"/>
<stop offset="0.739583" stop-color="#2A5EFD"/>
<stop offset="1" stop-color="#23FFF5"/>
</linearGradient>
</defs>
</svg>
